<!DOCTYPE svg PUBLIC "-//W3C//DTD SVG 1.1//EN" "http://www.w3.org/Graphics/SVG/1.1/DTD/svg11.dtd">
<!-- Uploaded to: SVG Repo, www.svgrepo.com, Transformed by: SVG Repo Mixer Tools -->
<svg fill="#12b59a" height="64px" width="64px" version="1.1" id="Capa_1" xmlns="http://www.w3.org/2000/svg" xmlns:xlink="http://www.w3.org/1999/xlink" viewBox="0 0 489.6 489.6" xml:space="preserve" stroke="#12b59a">
<g id="SVGRepo_bgCarrier" stroke-width="0"/>
<g id="SVGRepo_tracerCarrier" stroke-linecap="round" stroke-linejoin="round"/>
<g id="SVGRepo_iconCarrier"> <g> <g> <g> <path d="M433.5,311.8h55.9l-25.6-142.1l0,0c10.9-1.2,19.4-10.5,19.4-21.7c0-8.5-4.7-15.9-11.6-19.4V60.2l14.8-3.5L242.9,0 L0.2,57.1l242.7,57.1l208.5-48.9V129c-7,3.5-11.6,10.9-11.6,19.4c0,11.3,8.5,20.6,19.4,21.7l0,0L433.5,311.8z"/> <path d="M409.4,237.2L409.4,237.2V95.1l-166.6,38.8L76.3,95.1v142.1C186.6,259.7,299.5,259.7,409.4,237.2z"/> <path d="M242.9,274.1c-55.1,0-110.7-5.4-164.6-16.3c-5,16.7-7.8,34.6-7.8,53.2c0,98.6,77.3,178.6,172.4,178.6 s172.4-80,172.4-178.6c0-18.6-2.7-36.5-7.8-53.2C353.5,268.3,298,274.1,242.9,274.1z"/> </g> </g> </g> </g>
</svg>